<svg baseProfile="full" height="1500" version="1.1" width="1500"
     xmlns="http://www.w3.org/2000/svg"
     xmlns:ev="http://www.w3.org/2001/xml-events"
     xmlns:xlink="http://www.w3.org/1999/xlink">
  <defs>
    <!-- Gradient -->
    <linearGradient id="neonGradient" x1="0%" y1="0%" x2="100%" y2="100%">
      <stop offset="0%" stop-color="#ff00ff" />
      <stop offset="100%" stop-color="#00ffff" />
    </linearGradient>

    <!-- Glow effect -->
    <filter id="glow" x="-50%" y="-50%" width="200%" height="200%">
      <feGaussianBlur stdDeviation="8" result="blur" />
      <feMerge>
        <feMergeNode in="blur" />
        <feMergeNode in="SourceGraphic" />
      </feMerge>
    </filter>
  </defs>

  <rect class="cricle" width="100%" height="100%" fill="black" ry="50%" />
  <path d="M 556,432 L 556,868 L 557,869 L 557,877 L 558,878 L 558,883 L 559,884 L 559,888 L 560,889 L 560,892 L 561,893 L 561,896 L 562,897 L 562,899 L 563,900 L 563,902 L 564,903 L 564,905 L 565,906 L 565,907 L 566,908 L 566,910 L 567,911 L 567,913 L 568,914 L 568,915 L 569,916 L 569,917 L 570,918 L 570,919 L 571,920 L 571,922 L 573,924 L 573,925 L 574,926 L 574,927 L 575,928 L 575,929 L 576,930 L 576,931 L 578,933 L 578,934 L 580,936 L 580,937 L 581,938 L 581,939 L 583,941 L 583,942 L 586,945 L 586,946 L 589,949 L 589,950 L 594,955 L 594,956 L 604,966 L 605,966 L 611,972 L 612,972 L 615,975 L 616,975 L 619,978 L 620,978 L 622,980 L 623,980 L 625,982 L 626,982 L 628,984 L 629,984 L 630,985 L 631,985 L 633,987 L 635,987 L 637,989 L 638,989 L 639,990 L 640,990 L 641,991 L 642,991 L 643,992 L 644,992 L 645,993 L 647,993 L 648,994 L 649,994 L 650,995 L 652,995 L 653,996 L 654,996 L 655,997 L 657,997 L 658,998 L 660,998 L 661,999 L 663,999 L 664,1000 L 666,1000 L 667,1001 L 670,1001 L 671,1002 L 675,1002 L 676,1003 L 680,1003 L 681,1004 L 686,1004 L 687,1005 L 702,1005 L 703,1006 L 885,1006 L 886,1007 L 886,1008 L 887,1009 L 887,1037 L 886,1038 L 886,1039 L 885,1040 L 709,1040 L 708,1039 L 682,1039 L 681,1038 L 680,1039 L 682,1041 L 682,1042 L 685,1045 L 685,1046 L 690,1051 L 690,1052 L 700,1062 L 701,1062 L 706,1067 L 707,1067 L 708,1068 L 708,1069 L 709,1069 L 712,1072 L 713,1072 L 715,1074 L 716,1074 L 718,1076 L 719,1076 L 721,1078 L 722,1078 L 724,1080 L 725,1080 L 726,1081 L 727,1081 L 728,1082 L 729,1082 L 731,1084 L 732,1084 L 733,1085 L 734,1085 L 735,1086 L 736,1086 L 737,1087 L 738,1087 L 739,1088 L 740,1088 L 741,1089 L 742,1089 L 743,1090 L 745,1090 L 746,1091 L 747,1091 L 748,1092 L 750,1092 L 751,1093 L 752,1093 L 753,1094 L 755,1094 L 756,1095 L 758,1095 L 759,1096 L 762,1096 L 763,1097 L 765,1097 L 766,1098 L 769,1098 L 770,1099 L 774,1099 L 775,1100 L 779,1100 L 780,1101 L 790,1101 L 791,1102 L 949,1102 L 949,944 L 705,944 L 704,943 L 693,943 L 692,942 L 687,942 L 686,941 L 683,941 L 682,940 L 680,940 L 679,939 L 678,939 L 677,938 L 675,938 L 674,937 L 672,937 L 671,936 L 670,936 L 669,935 L 668,935 L 667,934 L 666,934 L 665,933 L 664,933 L 663,932 L 662,932 L 660,930 L 659,930 L 657,928 L 656,928 L 654,926 L 653,926 L 650,923 L 649,923 L 639,913 L 639,912 L 636,909 L 636,908 L 633,905 L 633,904 L 631,902 L 631,901 L 629,899 L 629,898 L 628,897 L 628,896 L 627,895 L 627,894 L 626,893 L 626,892 L 625,891 L 625,889 L 624,888 L 624,887 L 623,886 L 623,884 L 622,883 L 622,881 L 621,880 L 621,877 L 620,876 L 620,872 L 619,871 L 619,865 L 618,864 L 618,496 L 620,494 L 651,494 L 652,495 L 652,863 L 653,864 L 653,868 L 654,869 L 654,870 L 655,871 L 655,874 L 656,875 L 656,877 L 657,878 L 657,879 L 658,880 L 658,881 L 660,883 L 660,884 L 662,886 L 662,887 L 665,890 L 665,891 L 671,897 L 672,897 L 675,900 L 676,900 L 678,902 L 679,902 L 680,903 L 681,903 L 682,904 L 683,904 L 684,905 L 685,905 L 686,906 L 687,906 L 688,907 L 691,907 L 692,908 L 696,908 L 697,909 L 709,909 L 710,910 L 712,910 L 713,909 L 714,909 L 714,432 Z"
        fill="url(#neonGradient)" filter="url(#glow)" />
</svg>